<svg width="15" height="15" viewBox="0 0 15 15" fill="none" xmlns="http://www.w3.org/2000/svg">
<path d="M7.25093 6.75876L0.790097 3.81796C0.479299 3.6765 0.477256 3.23574 0.786729 3.09139L7.2476 0.077972C7.35368 0.0284944 7.47611 0.0279655 7.58261 0.0765243L14.192 3.08993C14.5056 3.23293 14.5036 3.67921 14.1886 3.81934L7.57925 6.76015C7.47465 6.80669 7.35512 6.80618 7.25093 6.75876Z" fill="black"/>
<path d="M7.2476 10.8804L0.687602 7.8207C0.396021 7.68471 0.376156 7.27761 0.65311 7.11387L1.65017 6.5244C1.76416 6.457 1.90411 6.45039 2.02395 6.50674L7.24521 8.96193C7.35265 9.01245 7.47698 9.01264 7.58457 8.96243L12.8553 6.50275C12.9712 6.44866 13.106 6.45326 13.2179 6.51513L14.3045 7.11562C14.5921 7.27458 14.576 7.69333 14.2769 7.82967L7.58262 10.8818C7.47611 10.9304 7.35368 10.9298 7.2476 10.8804Z" fill="black"/>
<path d="M7.2486 14.9225L0.702017 11.8691C0.407624 11.7318 0.391016 11.3194 0.673414 11.1588L1.65483 10.6009C1.76635 10.5375 1.90151 10.5315 2.01826 10.5846L7.251 12.9671C7.35516 13.0145 7.47463 13.0151 7.57921 12.9686L12.8617 10.6208C12.9741 10.5709 13.1032 10.5754 13.2119 10.6331L14.2795 11.2005C14.5732 11.3565 14.5593 11.7819 14.2561 11.9184L7.58196 14.9247C7.47581 14.9725 7.3541 14.9717 7.2486 14.9225Z" fill="black"/>
</svg>
