<svg width="18" height="16" viewBox="0 0 18 16" fill="none" xmlns="http://www.w3.org/2000/svg">
<path d="M0.302211 7.31353L2.2879 1.41019C2.51438 0.736908 3.35098 0.507813 3.88887 0.971782L4.19314 1.23423C4.50242 1.501 4.61838 1.92906 4.48604 2.31546L4.31653 2.8104C5.82225 3.93456 6.79368 0.291449 8.34796 1.67583C10.6308 0.291449 11.5537 3.57025 12.8651 2.8104L12.6956 2.31546C12.5633 1.92906 12.6792 1.501 12.9885 1.23423L13.2928 0.971782C13.8307 0.507813 14.6673 0.736908 14.8937 1.41019L16.8794 7.31353C17.0076 7.69443 16.8952 8.11503 16.5942 8.38131L16.3194 8.62441C15.7851 9.0971 14.9419 8.87434 14.7108 8.19945L14.6725 8.0877L13.5229 9.02867C13.57 9.0813 13.6136 9.13749 13.645 9.20074C14.0772 10.0712 13.3757 11.2708 12.7194 10.6379C13.0594 11.5851 12.3794 12.678 11.6994 12.0223C12.0394 12.678 11.408 13.9167 10.6794 13.4066C11.0194 14.3538 10.2422 15.3739 9.65939 14.8639L8.63939 13.9167L8.29939 14.4996C7.91082 15.0096 7.07296 14.3538 7.37653 13.2609C6.74511 14.7182 5.77368 13.9167 5.96796 12.7509C5.48225 13.6981 4.41368 13.0423 4.85082 11.5851C4.46316 11.715 4.22769 11.681 4.0596 11.4391C3.7415 10.9815 3.88321 10.3602 4.07368 9.83639L2.45923 8.23343C2.23363 8.89215 1.41062 9.10957 0.889116 8.64821L0.587429 8.38131C0.286433 8.11503 0.174087 7.69443 0.302211 7.31353Z" fill="black"/>
<path d="M4.31653 2.8104L4.48604 2.31546C4.61838 1.92906 4.50242 1.501 4.19314 1.23423L3.88887 0.971782C3.35098 0.507813 2.51438 0.736908 2.2879 1.41019L0.302211 7.31353C0.174087 7.69443 0.286433 8.11503 0.587429 8.38131L0.889116 8.64821C1.41062 9.10957 2.23363 8.89215 2.45923 8.23343M4.31653 2.8104C5.82225 3.93456 6.79368 0.291449 8.34796 1.67583M4.31653 2.8104L2.45923 8.23343M8.34796 1.67583C10.6308 0.291449 11.5537 3.57025 12.8651 2.8104M8.34796 1.67583L7.4468 2.47103C6.95417 2.90573 6.57589 3.4548 6.34522 4.06997L6.12846 4.64805C5.92605 5.18784 5.75228 5.82235 5.9906 6.34727C6.27376 6.97093 7.04621 6.57097 7.41643 5.99472L7.86226 5.30081C8.3508 4.54042 9.42942 4.45453 10.0321 5.12802L13.5229 9.02867M12.8651 2.8104L12.6956 2.31546C12.5633 1.92906 12.6792 1.501 12.9885 1.23423L13.2928 0.971782C13.8307 0.507813 14.6673 0.736908 14.8937 1.41019L16.8794 7.31353C17.0076 7.69443 16.8952 8.11503 16.5942 8.38131L16.3194 8.62441C15.7851 9.0971 14.9419 8.87434 14.7108 8.19945L14.6725 8.0877M12.8651 2.8104L14.6725 8.0877M12.7194 10.6379C13.3757 11.2708 14.0772 10.0712 13.645 9.20074C13.6136 9.13749 13.57 9.0813 13.5229 9.02867M12.7194 10.6379C13.0594 11.5851 12.3794 12.678 11.6994 12.0223M12.7194 10.6379L11.068 8.6706M11.6994 12.0223C12.0394 12.678 11.408 13.9167 10.6794 13.4066M11.6994 12.0223L10.4851 10.565M10.6794 13.4066C11.0194 14.3538 10.2422 15.3739 9.65939 14.8639L8.63939 13.9167M10.6794 13.4066L9.80511 12.3137M8.63939 13.9167L9.02796 12.9695C9.36796 11.8765 8.29939 11.075 7.95939 11.8037M8.63939 13.9167L8.29939 14.4996C7.91082 15.0096 7.07296 14.3538 7.37653 13.2609M14.6725 8.0877L13.5229 9.02867M2.45923 8.23343L4.07368 9.83639M4.07368 9.83639C4.42126 9.12537 5.30415 8.42002 5.54691 9.17331C5.5988 9.33433 5.62796 9.53143 5.62796 9.76353M4.07368 9.83639C3.88321 10.3602 3.7415 10.9815 4.0596 11.4391C4.22769 11.681 4.46316 11.7151 4.85082 11.5851M5.62796 9.76353L4.85082 11.5851M5.62796 9.76353C6.21082 8.45201 7.18225 9.18063 6.84225 10.565M4.85082 11.5851C4.41368 13.0423 5.48225 13.6981 5.96796 12.7509M6.84225 10.565C7.27939 9.54494 8.49368 10.3464 7.95939 11.8037M6.84225 10.565L5.96796 12.7509M7.95939 11.8037L7.37653 13.2609M5.96796 12.7509C5.77368 13.9167 6.74511 14.7182 7.37653 13.2609" stroke="white" stroke-width="0.5" stroke-linecap="round"/>
</svg>
