<svg width="20" height="20" viewBox="0 0 20 20" fill="none" xmlns="http://www.w3.org/2000/svg">
<path d="M0.142046 19.2205V5.58416H3.92401V19.2205H0.142046ZM2.0419 3.82634C1.47964 3.82634 0.997278 3.63991 0.594815 3.26704C0.198272 2.88825 0 2.43548 0 1.90873C0 1.3879 0.198272 0.941045 0.594815 0.568176C0.997278 0.189388 1.47964 -6.49691e-06 2.0419 -6.49691e-06C2.60417 -6.49691e-06 3.08357 0.189388 3.48011 0.568176C3.88258 0.941045 4.08381 1.3879 4.08381 1.90873C4.08381 2.43548 3.88258 2.88825 3.48011 3.26704C3.08357 3.63991 2.60417 3.82634 2.0419 3.82634ZM10.7355 11.337V19.2205H6.95357V5.58416H10.558V7.99005H10.7178C11.0196 7.19696 11.5257 6.5696 12.2359 6.10795C12.9461 5.64038 13.8073 5.4066 14.8193 5.4066C15.7663 5.4066 16.5919 5.61375 17.2963 6.02805C18.0006 6.44235 18.548 7.0342 18.9387 7.80362C19.3293 8.56711 19.5246 9.47857 19.5246 10.538V19.2205H15.7426V11.2127C15.7486 10.3782 15.5355 9.72715 15.1034 9.25958C14.6714 8.7861 14.0766 8.54936 13.319 8.54936C12.81 8.54936 12.3602 8.65885 11.9695 8.87783C11.5848 9.09682 11.283 9.41642 11.064 9.83664C10.8509 10.2509 10.7414 10.7511 10.7355 11.337Z" fill="#F77F00"/>
</svg>
